<?xml version="1.0" encoding="UTF-8" standalone="no"?>
<!-- Created with Inkscape (http://www.inkscape.org/) -->

<svg
   xmlns:dc="http://purl.org/dc/elements/1.1/"
   xmlns:cc="http://creativecommons.org/ns#"
   xmlns:rdf="http://www.w3.org/1999/02/22-rdf-syntax-ns#"
   xmlns:svg="http://www.w3.org/2000/svg"
   xmlns="http://www.w3.org/2000/svg"
   xmlns:sodipodi="http://sodipodi.sourceforge.net/DTD/sodipodi-0.dtd"
   xmlns:inkscape="http://www.inkscape.org/namespaces/inkscape"
   width="500"
   height="500"
   id="svg2"
   version="1.1"
   inkscape:version="0.48.4 r9939"
   sodipodi:docname="New document 1">
  <defs
     id="defs4" />
  <sodipodi:namedview
     id="base"
     pagecolor="#ffffff"
     bordercolor="#666666"
     borderopacity="1.0"
     inkscape:pageopacity="0.0"
     inkscape:pageshadow="2"
     inkscape:zoom="0.7"
     inkscape:cx="327.9968"
     inkscape:cy="125.32859"
     inkscape:document-units="px"
     inkscape:current-layer="layer1"
     showgrid="false"
     inkscape:window-width="1904"
     inkscape:window-height="1002"
     inkscape:window-x="0"
     inkscape:window-y="0"
     inkscape:window-maximized="0" />
  <metadata
     id="metadata7">
    <rdf:RDF>
      <cc:Work
         rdf:about="">
        <dc:format>image/svg+xml</dc:format>
        <dc:type
           rdf:resource="http://purl.org/dc/dcmitype/StillImage" />
        <dc:title></dc:title>
      </cc:Work>
    </rdf:RDF>
  </metadata>
  <g
     inkscape:label="Layer 1"
     inkscape:groupmode="layer"
     id="layer1"
     transform="translate(0,-552.36217)">
    <g
       transform="matrix(23.304056,0,0,14.1922,5246.6935,-1183.9791)"
       style="font-size:40px;font-style:normal;font-weight:normal;line-height:125%;letter-spacing:0px;word-spacing:0px;fill:#ffffff;fill-opacity:1;stroke:none;font-family:Sans"
       id="flowRoot2985">
      <path
         d="m -206.47656,133.43805 c -2e-5,3.2422 -1.30861,5.6185 -3.92578,7.1289 -1.96616,1.11981 -3.03387,2.25262 -3.20313,3.39844 -0.0391,0.29949 -0.0716,0.59897 -0.0977,0.89844 -0.0912,0.27345 -0.32553,0.41016 -0.70313,0.41016 -1.31511,0 -2.25912,0.0781 -2.83203,0.23437 -0.11719,0.0391 -0.20834,0.0586 -0.27344,0.0586 -0.46875,1e-5 -0.70313,-0.63801 -0.70312,-1.91406 -1e-5,-1.10676 0.64127,-2.4772 1.92382,-4.11133 1.28255,-1.6341 1.92382,-3.00454 1.92383,-4.11132 -1e-5,-1.67967 -0.89193,-2.51951 -2.67578,-2.51954 -1.13282,3e-5 -2.60417,0.44273 -4.41406,1.32813 -0.5599,2e-5 -0.83985,-1.66014 -0.83984,-4.98047 -10e-6,-0.36456 0.0195,-0.638 0.0586,-0.82031 0.18229,-0.87237 1.26953,-1.54945 3.26172,-2.03125 1.4453,-0.35154 2.83853,-0.52732 4.17969,-0.52735 2.35676,3e-5 4.30988,0.65758 5.85937,1.97266 1.64061,1.39325 2.46092,3.25523 2.46094,5.58594 z m -5.29297,16.79687 c -1e-5,1.00261 -0.34832,1.86849 -1.04492,2.59766 -0.69663,0.72917 -1.54624,1.09375 -2.54883,1.09375 -1.00261,0 -1.85222,-0.36458 -2.54883,-1.09375 -0.69662,-0.72917 -1.04493,-1.59505 -1.04492,-2.59766 -1e-5,-1.0026 0.3483,-1.85872 1.04492,-2.56836 0.69661,-0.70963 1.54622,-1.06444 2.54883,-1.06445 1.00259,1e-5 1.8522,0.35482 2.54883,1.06445 0.6966,0.70964 1.04491,1.56576 1.04492,2.56836 z"
         style="font-variant:normal;font-weight:bold;font-stretch:normal;font-family:Berlin Sans FB Demi;-inkscape-font-specification:Berlin Sans FB Demi;fill:#ffffff;fill-opacity:1"
         id="path2994" />
    </g>
    <g
       id="g3764"
       style="font-size:40px;font-style:normal;font-weight:normal;line-height:125%;letter-spacing:0px;word-spacing:0px;fill:#000000;fill-opacity:1;stroke:none;font-family:Sans"
       transform="matrix(23.304056,0,0,14.1922,4608.1221,-1239.6934)">
      <path
         id="path3766"
         style="font-variant:normal;font-weight:bold;font-stretch:normal;fill:#000000;fill-opacity:1;font-family:Berlin Sans FB Demi;-inkscape-font-specification:Berlin Sans FB Demi"
         d="m -206.47656,133.43805 c -2e-5,3.2422 -1.30861,5.6185 -3.92578,7.1289 -1.96616,1.11981 -3.03387,2.25262 -3.20313,3.39844 -0.0391,0.29949 -0.0716,0.59897 -0.0977,0.89844 -0.0912,0.27345 -0.32553,0.41016 -0.70313,0.41016 -1.31511,0 -2.25912,0.0781 -2.83203,0.23437 -0.11719,0.0391 -0.20834,0.0586 -0.27344,0.0586 -0.46875,1e-5 -0.70313,-0.63801 -0.70312,-1.91406 -1e-5,-1.10676 0.64127,-2.4772 1.92382,-4.11133 1.28255,-1.6341 1.92382,-3.00454 1.92383,-4.11132 -1e-5,-1.67967 -0.89193,-2.51951 -2.67578,-2.51954 -1.13282,3e-5 -2.60417,0.44273 -4.41406,1.32813 -0.5599,2e-5 -0.83985,-1.66014 -0.83984,-4.98047 -1e-5,-0.36456 0.0195,-0.638 0.0586,-0.82031 0.18229,-0.87237 1.26953,-1.54945 3.26172,-2.03125 1.4453,-0.35154 2.83853,-0.52732 4.17969,-0.52735 2.35676,3e-5 4.30988,0.65758 5.85937,1.97266 1.64061,1.39325 2.46092,3.25523 2.46094,5.58594 z m -5.29297,16.79687 c -1e-5,1.00261 -0.34832,1.86849 -1.04492,2.59766 -0.69663,0.72917 -1.54624,1.09375 -2.54883,1.09375 -1.00261,0 -1.85222,-0.36458 -2.54883,-1.09375 -0.69662,-0.72917 -1.04493,-1.59505 -1.04492,-2.59766 -1e-5,-1.0026 0.3483,-1.85872 1.04492,-2.56836 0.69661,-0.70963 1.54622,-1.06444 2.54883,-1.06445 1.00259,1e-5 1.8522,0.35482 2.54883,1.06445 0.6966,0.70964 1.04491,1.56576 1.04492,2.56836 z"
         inkscape:connector-curvature="0" />
    </g>
  </g>
</svg>
